<svg id="Layer_1" data-name="Layer 1" xmlns="http://www.w3.org/2000/svg" viewBox="0 0 233.94 34.16"><defs><style>.cls-1{fill:#000;}</style></defs><title>modibodi-logo</title><path class="cls-1" d="M1004.63-714.8c-9.88,0-16.14,6.12-16.14,13.28C988.49-697,992-691,1001.1-691c8.7,0,15.94-5.07,15.94-13.28,0-7.31-6.91-10.53-12.41-10.53m-.76,17.36c-.8,4.37-1.5,5.41-2.91,5.41-1.13,0-1.6-.9-1.6-2.37,0-2.38,1.64-10.91,2.82-16,.61-2.7,1.41-3.32,2.45-3.32a1.57,1.57,0,0,1,1.55,1.66c0,3.89-1.18,8.49-2.31,14.66" transform="translate(-834.84 725.14)"/><path class="cls-1" d="M894.61-714.8c-8.33,0-14.09,4.35-15.68,10l-1.6,4.45c-1.64,4.55-2.21,5.31-3.05,5.31a.72.72,0,0,1-.71-.81c0-1.42,4.18-15.65,4.18-19.64a6.06,6.06,0,0,0-6.26-6.12c-4.47,0-7.48,4.84-8.51,8.54h-.1c.8-6.45-1.17-8.54-5.17-8.54-4.84,0-7.48,5.08-8.46,9.06h-.1c.66-6.4-1.13-9.06-5.27-9.06-4.78,0-6.93,4.07-8.1,8.18-.06.21-.89,3.35-.94,3.56H836l1-3.46c.87-2.81,1.73-4.15,2.45-4.15s.94.47.37,3.23l-4.31,22.77c1.88-.14,3.81-.24,5.55-.24.89,0,1.74.05,2.58.1l2.5.14a197.29,197.29,0,0,1,4.55-22.11c1.17-3.37,1.5-4.08,2.68-4.08.47,0,.66.66.19,3.08l-4.18,23.11c1.88-.1,3.62-.24,5.08-.24.89,0,1.74.05,2.59.1l2.58.14c1.84-11,4.18-21.07,4.79-22.59,1.22-2.89,1.88-3.6,2.73-3.6a.56.56,0,0,1,.56.62c0,1.28-3.75,16.55-3.75,19.5,0,3.46,1.69,6.35,5.5,6.35,5.74,0,7.53-4.41,9.13-9.15.55,4.34,4.17,9.34,12.52,9.34,8.7,0,15.95-5.07,15.95-13.28,0-7.31-6.92-10.53-12.42-10.53m-.75,17.36c-.8,4.37-1.51,5.41-2.92,5.41-1.13,0-1.6-.9-1.6-2.37,0-2.38,1.65-10.91,2.82-16,.62-2.7,1.42-3.32,2.45-3.32a1.57,1.57,0,0,1,1.55,1.66c0,3.89-1.17,8.49-2.3,14.66" transform="translate(-834.84 725.14)"/><path class="cls-1" d="M1060.73-716.8c2.45,0,6.07-.8,6.07-3.89,0-3.46-3.44-4.41-6.26-4.41-2.4,0-6,.81-6,3.94,0,3.51,3.34,4.36,6.21,4.36" transform="translate(-834.84 725.14)"/><path class="cls-1" d="M950.83-716.8c2.44,0,6.06-.8,6.06-3.89,0-3.46-3.43-4.41-6.25-4.41-2.4,0-6,.81-6,3.94,0,3.51,3.34,4.36,6.21,4.36" transform="translate(-834.84 725.14)"/><path class="cls-1" d="M977.59-714.8a8.58,8.58,0,0,0-5.23,2.08l-.09-.09,2.16-12.29c-4.13.29-7.85.52-11.8.52h-3.25l-.23,1.38h3.9l-3.43,19.26c-1.41,7.92,2.07,13,10.63,13,14.2,0,16.88-9.53,16.88-13.66,0-6.07-3.34-10.15-9.54-10.15m-3.39,16.36c-1,5.79-1.6,6.46-2.87,6.46-1.46,0-2-.67-2-2.09a85.78,85.78,0,0,1,2-13.62c.89-3.89,1.46-4.31,2.77-4.31,1.08,0,1.55,1.13,1.55,2a77.63,77.63,0,0,1-1.5,11.52" transform="translate(-834.84 725.14)"/><path class="cls-1" d="M1067.64-700.48c-.47,1.19-1.59,5.41-3.19,5.41-.61,0-.9-.38-.9-1,0-1.57,2.36-7.35,2.36-11.39,0-4.36-2.64-7.16-6.78-7.16-5.26,0-7.1,3.64-8.6,9.63l-1.32,5c-.33,1.26-1.28,5.41-3.29,5.41-.52,0-.8-.66-.66-1.52l5-29c-4.14.28-7.85.52-11.8.52h-3.62l-.24,1.37h4.28l-2.16,12.43h-.1a7.38,7.38,0,0,0-7-4c-7,0-11.29,7.54-11.29,13,0,5.26,2.49,10.81,8.89,10.81a7.9,7.9,0,0,0,8-6.31h.09c.1,4.27,1.84,6.31,6.21,6.31,5.32,0,7.67-4.41,8.75-9.06l1.34-5c.85-3,1.48-5.6,2.75-5.6.94,0,1,1,1,1.61,0,1.57-2.12,7.22-2.12,11.44s2.26,6.4,6.16,6.4c3.62,0,7.24-1.33,9.31-9.3Zm-32.91,1c-1.09,4.6-2,5.22-2.92,5.22-1.13,0-1.83-.76-1.83-3.08a37.31,37.31,0,0,1,.84-7.26c.66-3.37,1.46-6.69,3.29-6.69,1.32,0,1.84.61,1.84,2.7a38.24,38.24,0,0,1-1.22,9.11" transform="translate(-834.84 725.14)"/><path class="cls-1" d="M954.54-695.07c-.61,0-.89-.38-.89-1,0-1.57,2.35-7.35,2.35-11.39,0-4.36-2.63-7.16-6.77-7.16-5.27,0-7.1,3.64-8.61,9.63l-1.31,5c-.33,1.26-1.29,5.41-3.3,5.41-.51,0-.8-.66-.66-1.52l5-29c-4.14.28-7.86.52-11.81.52H925l-.23,1.37H929l-2.17,12.43h-.09a7.39,7.39,0,0,0-7-4c-7,0-11.29,7.54-11.29,13,0,5.26,2.5,10.81,8.89,10.81a7.89,7.89,0,0,0,8-6.31h.1c.09,4.27,1.83,6.31,6.21,6.31,5.31,0,7.66-4.41,8.74-9.06l1.34-5c.85-3,1.48-5.6,2.75-5.6.94,0,1,1,1,1.61,0,1.57-2.12,7.22-2.12,11.44s2.26,6.4,6.17,6.4c3.62,0,7.24-1.33,9.31-9.3h-1.13c-.47,1.19-1.6,5.41-3.2,5.41m-29.72-4.41c-1.08,4.6-2,5.22-2.92,5.22-1.12,0-1.83-.76-1.83-3.08a37.31,37.31,0,0,1,.85-7.26c.65-3.37,1.45-6.69,3.29-6.69,1.32,0,1.83.61,1.83,2.7a37.73,37.73,0,0,1-1.22,9.11" transform="translate(-834.84 725.14)"/></svg>